<?xml version="1.0" encoding="utf-8"?>
<!-- Generator: Adobe Illustrator 26.0.1, SVG Export Plug-In . SVG Version: 6.00 Build 0)  -->
<svg version="1.1" id="Calque_1" xmlns="http://www.w3.org/2000/svg" xmlns:xlink="http://www.w3.org/1999/xlink" x="0px" y="0px"
	 viewBox="0 0 250 250" style="enable-background:new 0 0 250 250;" xml:space="preserve">
<style type="text/css">
	.st0{fill:none;stroke:#6CBA79;stroke-width:6;stroke-miterlimit:10;}
	.st1{fill:#12938C;}
	.st2{font-family:'CevicheOne-Regular';}
	.st3{font-size:43.0903px;}
</style>
<path class="st0" d="M205.81,115.16c1.93,12.34-6.51,23.91-18.84,25.84c-3.85,0.6-7.62,0.2-11.05-1.02
	c-5.42,7.32-13.62,12.6-23.33,14.12c-7.87,1.23-15.54-0.17-22.11-3.58c-6.54,4.53-14.17,7.69-22.56,9
	c-12.94,2.03-25.55-0.69-36.02-6.86c-1.04,0.25-2.11,0.47-3.19,0.64c-20.62,3.23-39.94-10.86-43.18-31.47
	c-2.94-18.73,8.43-36.42,26.02-41.9c7.78-14.46,22.02-25.24,39.49-27.98c24.47-3.84,47.69,9.28,57.72,30.62
	c11,0.53,21,6.09,27.31,14.73c1.24-0.44,2.54-0.76,3.89-0.97C192.3,94.39,203.88,102.83,205.81,115.16z"/>
<text transform="matrix(0.8538 0 0 1 40.4096 128.8792)" class="st1 st2 st3">CLOUD-ID</text>
</svg>
