<?xml version="1.0" encoding="utf-8"?>
<!-- Generator: Adobe Illustrator 26.0.1, SVG Export Plug-In . SVG Version: 6.00 Build 0)  -->
<svg version="1.1" xmlns="http://www.w3.org/2000/svg" xmlns:xlink="http://www.w3.org/1999/xlink" x="0px" y="0px"
	 viewBox="0 0 250 205.87" style="enable-background:new 0 0 250 205.87;" xml:space="preserve">
<style type="text/css">
	.st0{fill:#DCE7F7;}
	.st1{fill:#EAE8E8;}
	.st2{fill:#B4CEFC;}
	.st3{fill:#211C18;}
	.st4{fill:#1CF78E;}
	.st5{fill:#004FFF;}
	.st6{fill:#579CFF;}
	.st7{fill:#7F4B28;}
	.st8{fill:none;stroke:#44220A;stroke-width:0.75;}
	.st9{fill:#593004;}
</style>
<g id="Calque_8">
	<path class="st0" d="M103.3,160.47c0.31-0.46,0.58-0.96,0.81-1.5c1.8-4.31-0.23-9.25-4.52-11.04c-3.3-1.38-6.99-0.48-9.33,1.98
		c2.2-3.26,6.45-4.63,10.2-3.07c4.29,1.79,6.31,6.73,4.52,11.04C104.57,158.88,104,159.74,103.3,160.47z"/>
	<rect class="st1" width="250" height="250"/>
</g>
<g id="Calque_7">
	<ellipse class="st2" cx="146.24" cy="155.66" rx="46.93" ry="48.36"/>
	<ellipse class="st2" cx="183.61" cy="110.51" rx="30.35" ry="31.28"/>
	<ellipse class="st2" cx="71.92" cy="89.13" rx="30.35" ry="31.28"/>
	<ellipse class="st2" cx="70.17" cy="163.19" rx="34.13" ry="35.17"/>
	<ellipse class="st2" cx="150.74" cy="66.37" rx="9.9" ry="10.2"/>
	<path class="st0" d="M176.42,180.36c1.44-2.13,2.7-4.44,3.73-6.91c8.3-19.93-1.05-42.76-20.86-51.01
		c-15.26-6.35-32.28-2.21-43.1,9.13c10.18-15.04,29.8-21.39,47.14-14.17c19.82,8.25,29.16,31.09,20.86,51.01
		C182.29,172.98,179.63,176.99,176.42,180.36z"/>
	<path class="st2" d="M183.13,161.99c0,2.73-0.27,5.4-0.78,7.97c-5.58,14.95-19.64,25.56-36.11,25.56
		c-21.36,0-38.68-17.85-38.68-39.86c0-2.74,0.27-5.42,0.78-8c0.01-0.01,0.01-0.02,0.01-0.03c5.6-14.92,19.65-25.5,36.1-25.5
		C165.81,122.13,183.13,139.97,183.13,161.99z"/>
	<path class="st0" d="M203.11,126.57c0.96-1.42,1.8-2.96,2.48-4.61c5.53-13.28-0.7-28.5-13.91-34c-10.17-4.23-21.52-1.47-28.73,6.09
		c6.79-10.03,19.87-14.26,31.42-9.44c13.21,5.5,19.44,20.72,13.91,34C207.02,121.65,205.25,124.32,203.11,126.57z"/>
	<path class="st0" d="M91.73,104.6c0.96-1.42,1.8-2.96,2.48-4.61c5.53-13.28-0.7-28.5-13.91-34c-10.17-4.23-21.52-1.47-28.73,6.09
		C58.36,62.05,71.44,57.82,83,62.63c13.21,5.5,19.44,20.72,13.91,34C95.64,99.67,93.87,102.35,91.73,104.6z"/>
	<path class="st0" d="M96.62,152.75c-0.86-1.7-1.9-3.35-3.13-4.91c-9.92-12.58-28.09-14.77-40.6-4.91
		c-9.63,7.59-13.09,20.12-9.65,31.23c-6.07-12.03-3.09-27.04,7.85-35.67c12.51-9.86,30.69-7.66,40.6,4.91
		C93.95,146.27,95.59,149.45,96.62,152.75z"/>
	<path class="st0" d="M157.05,72.12c0.31-0.46,0.58-0.96,0.81-1.5c1.8-4.31-0.23-9.25-4.52-11.04c-3.3-1.38-6.99-0.48-9.33,1.98
		c2.2-3.26,6.45-4.63,10.2-3.07c4.29,1.79,6.31,6.73,4.52,11.04C158.32,70.52,157.75,71.38,157.05,72.12z"/>
</g>
<g id="Calque_4">
	<path class="st3" d="M92.32,124.21c0,0,1.16-40.09,2.24-43.69c1.08-3.6,6.12-15.12,12.96-18c6.84-2.88,14.04-4.32,20.88-2.52
		c6.84,1.8,15.12,14.04,16.2,19.08c1.08,5.04,8.74,48.6,8.74,48.6l-61.02,2.52V124.21z"/>
</g>
<g id="Calque_3">
	<path class="st4" d="M162.96,161.88l-4.68-11.52l-4.94-15.12l-11.26-8.52l-1.99,6.88l-6.65,7.06c0,0-9.69,0.31-17.87-5.75
		c-8.18-6.07-10.2-5.74-11.64-9.9c-1.45-4.16,1.07-2.16,1.07-2.16s-2.52-1.6-8.28,0c-5.76,1.6-11.59,3.78-17.28,8.44
		c-5.69,4.66-6.84,28.8-6.84,28.8l14.76-0.72c0,0,6.43,14.22,7.2,25.74c0.77,11.52-1.45,20.77-1.45,20.77l54.73-1.51
		c0,0-3.56-12.96-1.6-19.26C148.2,178.8,162.96,161.88,162.96,161.88z"/>
</g>
<g id="Calque_6">
	<g>
		<path class="st5" d="M93.91,103.21l-8.99,12.6c-1.24,1.74-3.66,2.14-5.4,0.9l-7.47-5.33c-1.74-1.24-2.14-3.66-0.9-5.4l8.99-12.6
			c1.24-1.74,3.66-2.14,5.4-0.9l7.47,5.33C94.75,99.06,95.15,101.47,93.91,103.21z"/>
		
			<rect x="73.99" y="102.78" transform="matrix(0.581 -0.8139 0.8139 0.581 -54.4499 108.8922)" class="st2" width="9.09" height="9.09"/>
		
			<rect x="76.88" y="96.2" transform="matrix(0.581 -0.8139 0.8139 0.581 -45.0188 107.0177)" class="st6" width="9.09" height="2.07"/>
		
			<rect x="79.31" y="97.93" transform="matrix(0.581 -0.8139 0.8139 0.581 -45.4114 109.7155)" class="st6" width="9.09" height="2.07"/>
		
			<rect x="82.92" y="101.71" transform="matrix(0.581 -0.8139 0.8139 0.581 -47.9573 112.3348)" class="st6" width="4.41" height="2.07"/>
	</g>
</g>
<g id="Calque_2">
	<path class="st7" d="M142.08,88.44c0,9.5-5.64,17.59-13.53,20.65c-2.18,0.85-4.53,1.31-6.99,1.31c-11.33,0-20.52-9.83-20.52-21.96
		s9.19-21.96,20.52-21.96S142.08,76.31,142.08,88.44z"/>
	<path class="st7" d="M142.08,126.72c0,0-16.98,1.95-13.53-17.62c3.45-19.57-13.97,0-13.97,0s-2.02,12.15-9.58,13.75
		c-7.56,1.6,28.41,28.17,34.2,13.84C142.4,128.76,142.08,126.72,142.08,126.72z"/>
	<path class="st7" d="M157.92,165.84V186l2.52,18.36h-12.6c0,0-3.6-16.56,0-21.24c3.6-4.68,5.5-15.84,5.5-15.84L157.92,165.84z"/>
	<path class="st7" d="M90.96,199.68c0,0,10.08-3.24,7.56-18c-2.52-14.76-9-32.04-10.8-38.16c-1.8-6.12,0.36-11.16,0-15.84
		s-4.68-7.16-4.68-7.16s-1.08-7.96-2.16-8.32c-1.08-0.36-5.4-1.8-5.4-1.8v-3.6l-8.28,1.44l-2.88,7.2l2.52,5.08l-0.72,2.32
		c0,0,0-5.6,6.84,10.96c6.84,16.56,0.36,39.96,0.72,45c0.36,5.04-0.72,10.8,4.32,15.48C83.04,198.96,90.96,199.68,90.96,199.68z"/>
</g>
<g id="Calque_5">
	<path class="st3" d="M114,67.2c0,0,0-4.32,2.88-7.2c2.88-2.88,13.68,0,13.68,0s11.16,7.92,13.32,15.48
		c2.16,7.56-2.52,13.68-2.52,13.68s1.08-1.8-2.16-4.32c-3.24-2.52-5.72-2.52-14.2-5.04C116.52,77.28,114,67.2,114,67.2z"/>
	<line class="st8" x1="75.48" y1="110.4" x2="70.44" y2="112.92"/>
	<line class="st8" x1="80.88" y1="112.2" x2="72.96" y2="116.88"/>
	<line class="st8" x1="83.04" y1="120.52" x2="76.92" y2="119.04"/>
	<g>
		<path class="st9" d="M113.35,100.36l3.17,1.76c3.47,1.96,7,0.42,9.76-1.98c0,0,0.36,0.51,0.36,0.51
			c-2.94,2.37-6.71,3.82-10.23,1.66c0,0-3.11-1.88-3.11-1.88L113.35,100.36L113.35,100.36z"/>
	</g>
	<g>
		<path class="st9" d="M117.8,91.24c-0.92,0.57-1.34,2.01-0.68,2.88c0.36,0.38,1.02,0.56,1.64,0.61c0.64,0.05,1.29,0.04,1.95-0.03
			c-0.63,0.21-1.28,0.34-1.96,0.37c-0.66,0-1.42-0.02-2.02-0.55c-1.04-1-0.69-3.59,1.02-3.59C117.76,90.92,117.8,91.24,117.8,91.24
			L117.8,91.24z"/>
	</g>
</g>
</svg>
