<svg xmlns="http://www.w3.org/2000/svg" width="500" height="500" style="width:100%;height:100%;transform:translate3d(0,0,0);content-visibility:visible" viewBox="0 0 500 500"><defs><clipPath id="a"><path d="M0 0h500v500H0z"/></clipPath><clipPath id="c"><path d="M0 0h500v500H0z"/></clipPath><clipPath id="b"><path d="M0 0h500v500H0z"/></clipPath></defs><g clip-path="url(#a)"><g clip-path="url(#b)" style="display:block"><path fill="none" class="primary design" style="display:none"/><g class="primary design" style="display:none"><path/><path fill="none"/></g><path fill="#121330" d="M8.508 7.092 4.884 3.468A7.698 7.698 0 0 0 6.5-1.248c0-4.28-3.48-7.75-7.75-7.75S-9-5.528-9-1.248c0 4.27 3.48 7.75 7.75 7.75a7.7 7.7 0 0 0 4.721-1.62l3.623 3.624a.997.997 0 0 0 1.414 0 .999.999 0 0 0 0-1.414zM-1.25-6.998c3.17 0 5.75 2.58 5.75 5.75s-2.58 5.75-5.75 5.75S-7 1.922-7-1.248s2.58-5.75 5.75-5.75z" class="primary design" style="display:block" transform="translate(250 250) scale(20.83)"/><path class="primary design" style="display:none"/></g><g clip-path="url(#c)" opacity="0" style="display:block"><path fill="none" class="primary design" style="display:none"/><g class="primary design" style="display:none"><path/><path fill="none"/></g><path class="primary design" style="display:none"/></g><g class="com" style="display:none"><path/><path/><path/><path/><path/><path/><path/><path/><path/><path/><path/><path/></g></g></svg>