<svg xmlns="http://www.w3.org/2000/svg" width="500" height="500" style="width:100%;height:100%;transform:translate3d(0,0,0);content-visibility:visible" viewBox="0 0 500 500"><defs><clipPath id="f"><path d="M0 0h500v500H0z"/></clipPath><clipPath id="i"><path d="M0 0h500v500H0z"/></clipPath><clipPath id="g"><path d="M0 0h500v500H0z"/></clipPath><clipPath id="e"><path d="M0 0h500v500H0z"/></clipPath><filter id="a" width="100%" height="100%" x="0%" y="0%" filterUnits="objectBoundingBox"><feComponentTransfer in="SourceGraphic"><feFuncA tableValues="1.0 0.0" type="table"/></feComponentTransfer></filter><filter id="c" width="100%" height="100%" x="0%" y="0%" filterUnits="objectBoundingBox"><feComponentTransfer in="SourceGraphic"><feFuncA tableValues="1.0 0.0" type="table"/></feComponentTransfer></filter><mask id="j" mask-type="alpha"><g filter="url(#a)"><path fill="#fff" d="M0 0h500v500H0z" opacity="0"/><use xmlns:ns1="http://www.w3.org/1999/xlink" ns1:href="#b"/></g></mask><mask id="h" mask-type="alpha"><g filter="url(#c)"><path fill="#fff" d="M0 0h500v500H0z" opacity="0"/><use xmlns:ns2="http://www.w3.org/1999/xlink" ns2:href="#d"/></g></mask><g id="b" fill-opacity="0" stroke-linecap="round" stroke-linejoin="round" class="primary design" style="display:none"><path/><path/><path/></g><g id="d" fill-opacity="0" stroke-linecap="round" stroke-linejoin="round" clip-path="url(#e)" style="display:none"><g class="primary design" style="display:none"><path/><path/><path/></g><g class="primary design" style="display:none"><path/><path/><path/></g></g></defs><g clip-path="url(#f)"><g clip-path="url(#g)" style="display:block"><g mask="url(#h)" style="display:none"><path class="primary design"/></g><path class="primary design" style="display:none"/><path fill="#121330" d="M6.25-1.904H5c0-.55-.45-1-1-1h-8c-.55 0-1 .45-1 1h-1.25c-.96 0-1.75.79-1.75 1.75v15.5c0 .97.79 1.75 1.75 1.75h12.5c.96 0 1.75-.78 1.75-1.75v-15.5c0-.96-.79-1.75-1.75-1.75zM-3-.404v-.5h6v2h-6v-1.5zM-4 11c-.55 0-1-.45-1-1s.45-1 1-1h8c.55 0 1 .45 1 1s-.45 1-1 1h-8zm5 3c0 .55-.45 1-1 1h-4c-.55 0-1-.45-1-1s.45-1 1-1h4c.55 0 1 .45 1 1zm3-7h-8c-.55 0-1-.45-1-1s.45-1 1-1h8c.55 0 1 .45 1 1s-.45 1-1 1z" class="primary design" style="display:block" transform="translate(249.996 101.706) scale(20.83)"/></g><g clip-path="url(#i)" opacity="0" style="display:block"><g mask="url(#j)" style="display:none"><path class="primary design"/></g><path class="primary design" style="display:none"/></g><g class="com" style="display:none"><path/><path/><path/><path/><path/><path/><path/><path/><path/><path/><path/><path/></g></g></svg>