<svg xmlns="http://www.w3.org/2000/svg" width="500" height="500" style="width:100%;height:100%;transform:translate3d(0,0,0);content-visibility:visible" viewBox="0 0 500 500"><defs><clipPath id="a"><path d="M0 0h500v500H0z"/></clipPath><clipPath id="c"><path d="M0 0h500v500H0z"/></clipPath><clipPath id="b"><path d="M0 0h500v500H0z"/></clipPath></defs><g clip-path="url(#a)"><g clip-path="url(#b)" style="display:block"><path fill="#121330" d="M4.575-.995H-2.23l1.848-1.922a1 1 0 0 0-1.442-1.386L-5.296-.692a1 1 0 0 0 0 1.386l3.472 3.61a.996.996 0 0 0 .721.306 1 1 0 0 0 .721-1.693l-1.839-1.912h6.796a1 1 0 1 0 0-2zm-8.358-6.684-3.469-3.61a1 1 0 0 0-1.441 1.386l1.847 1.923h-6.677a1 1 0 1 0 0 2h6.667l-1.837 1.912a1 1 0 0 0 1.441 1.386l3.469-3.611a1 1 0 0 0 0-1.386z" class="primary design" style="display:block" transform="translate(344.702 333.213) scale(20.83)"/></g><g clip-path="url(#c)" opacity="0" style="display:block"><path class="primary design" style="display:none"/></g><g class="com" style="display:none"><path/><path/><path/><path/><path/><path/><path/><path/><path/><path/><path/><path/></g></g></svg>